# This file uses centimeters as units for non-parametric coordinates.

mtllib diamond.mtl
g default
v 1.000000 -0.465194 -0.000000
v 0.809017 -0.465194 -0.587785
v 0.309017 -0.465194 -0.951057
v 0.809017 -0.465194 0.587785
v 0.309017 -0.465194 0.951057
v -0.309017 -0.465194 0.951057
v -0.809017 -0.465194 0.587785
v -1.000000 -0.465194 0.000000
v -0.809017 -0.465194 -0.587785
v -0.309017 -0.465194 -0.951057
v 1.000000 -0.555474 0.000000
v 0.809017 -0.555474 -0.587785
v 0.309017 -0.555474 -0.951057
v 0.809017 -0.555474 0.587785
v 0.309017 -0.555474 0.951057
v -0.309017 -0.555474 0.951057
v -0.809017 -0.555474 0.587785
v -1.000000 -0.555474 0.000000
v -0.809017 -0.555474 -0.587785
v -0.309017 -0.555474 -0.951057
v 0.239184 -0.855459 0.196412
v 0.308952 -0.855459 0.018311
v 0.260711 -0.855459 -0.166784
v 0.078056 -0.855459 0.299489
v -0.112887 -0.855459 0.288172
v -0.260711 -0.855459 0.166783
v -0.308952 -0.855459 -0.018311
v -0.239185 -0.855459 -0.196412
v -0.078056 -0.855459 -0.299490
v 0.112887 -0.855459 -0.288173
v 0.179522 0.153529 -0.239734
v 0.004324 0.153529 -0.299469
v -0.172525 0.153529 -0.244817
v -0.283476 0.153529 -0.096653
v -0.286149 0.153529 0.088429
v -0.179522 0.153529 0.239734
v -0.004324 0.153529 0.299469
v 0.172525 0.153529 0.244817
v 0.283476 0.153529 0.096653
v 0.286149 0.153529 -0.088429
v 0.000000 0.772252 0.000000
v 0.574607 -0.838549 0.032571
v 0.400510 -0.882967 0.025140
v 0.616752 -0.771805 0.237144
v 0.877596 -0.565171 0.334633
v 0.907824 -0.564288 -0.245429
v 0.637290 -0.772621 -0.170368
v 0.309242 -0.882967 0.255753
v 0.445588 -0.838705 0.363991
v 0.484012 -0.838548 -0.311395
v 0.338797 -0.882967 -0.215075
v 0.590186 -0.564288 -0.732162
v 0.415439 -0.772621 -0.512420
v 0.359573 -0.771805 0.554371
v 0.513298 -0.565171 0.786562
v 0.099855 -0.882967 0.388677
v 0.146540 -0.838705 0.556385
v -0.034950 -0.771805 0.659848
v -0.047063 -0.565171 0.938051
v -0.147674 -0.882967 0.373139
v -0.208482 -0.838705 0.536259
v -0.416124 -0.771805 0.513285
v -0.589447 -0.565170 0.731236
v -0.338797 -0.882967 0.215075
v -0.483870 -0.838705 0.311300
v -0.638352 -0.771805 0.170665
v -0.906682 -0.565171 0.245114
v -0.400510 -0.882967 -0.025140
v -0.574437 -0.838705 -0.032565
v -0.616752 -0.771805 -0.237144
v -0.877596 -0.565170 -0.334633
v -0.309243 -0.882967 -0.255753
v -0.445588 -0.838705 -0.363991
v -0.359574 -0.771805 -0.554371
v -0.513298 -0.565171 -0.786562
v -0.099855 -0.882967 -0.388677
v -0.146540 -0.838705 -0.556385
v 0.034950 -0.771805 -0.659848
v 0.047063 -0.565170 -0.938051
v 0.147674 -0.882967 -0.373139
v 0.208482 -0.838705 -0.536259
vt 0.718170 0.347964
vt 0.660588 0.072781
vt 0.660588 0.427219
vt 0.525751 0.487764
vt 0.372746 0.451437
vt 0.269098 0.308779
vt 0.269098 0.191221
vt 0.339412 0.072781
vt 0.474249 0.012236
vt 0.250000 0.500000
vt 0.375000 0.750000
vt 0.750000 0.500000
vt 0.400000 0.750000
vt 0.425000 0.750000
vt 0.450000 0.750000
vt 0.450000 0.500000
vt 0.475000 0.750000
vt 0.500000 0.500000
vt 0.500000 0.750000
vt 0.525000 0.750000
vt 0.550000 0.750000
vt 0.575000 0.750000
vt 0.600000 0.750000
vt 0.300000 0.500000
vt 0.350000 0.500000
vt 0.400000 0.500000
vt 0.550000 0.500000
vt 0.600000 0.500000
vt 0.650000 0.500000
vt 0.700000 0.500000
vt 0.500000 1.000000
vt 0.625000 0.750000
vt 0.702254 0.103054
vt 0.450000 0.500000
vt 0.500000 0.500000
vt 0.550000 0.500000
vt 0.709562 0.125544
vt 0.675906 0.083910
vt 0.742708 0.272442
vt 0.544686 0.012236
vt 0.683164 0.410816
vt 0.553657 0.487764
vt 0.403655 0.473894
vt 0.290454 0.374504
vt 0.257292 0.227558
vt 0.316836 0.089184
vt 0.702254 0.103054
vt 0.577254 0.012236
vt 0.749771 0.250705
vt 0.750000 0.250000
vt 0.701655 0.397382
vt 0.702254 0.396946
vt 0.576513 0.487764
vt 0.577254 0.487764
vt 0.422146 0.487328
vt 0.422746 0.487764
vt 0.297517 0.396241
vt 0.297746 0.396946
vt 0.250229 0.249295
vt 0.250000 0.250000
vt 0.298345 0.102618
vt 0.297746 0.103054
vt 0.423487 0.012236
vt 0.422746 0.012236
vt 0.750000 0.250000
vt 0.702254 0.103054
vt 0.727734 0.181472
vt 0.702254 0.396946
vt 0.577254 0.487764
vt 0.422746 0.487764
vt 0.297746 0.396946
vt 0.250000 0.250000
vt 0.297746 0.103054
vt 0.422746 0.012236
vt 0.577254 0.012236
vt 0.643961 0.060701
vt 0.740018 0.219278
vt 0.596386 0.026136
vt 0.702483 0.103759
vt 0.724728 0.327780
vt 0.712236 0.366224
vt 0.636091 0.445017
vt 0.603388 0.468777
vt 0.495472 0.487764
vt 0.455049 0.487764
vt 0.356582 0.439694
vt 0.323879 0.415934
vt 0.272474 0.319167
vt 0.259982 0.280722
vt 0.275272 0.172220
vt 0.287764 0.133776
vt 0.363909 0.054983
vt 0.396612 0.031223
vt 0.504528 0.012236
vt 0.446343 0.012236
vt 0.577854 0.012671
vn -0.211778 -0.977238 -0.012464
vn -0.119285 -0.988025 -0.097870
vn -0.111436 -0.991207 0.071353
vn -0.030578 -0.992646 -0.117124
vn 0.038115 -0.994513 -0.097417
vn 0.083939 -0.995020 -0.053747
vn 0.104428 -0.994513 0.006146
vn 0.093582 -0.992646 0.076782
vn 0.038976 -0.988025 0.149292
vn -0.077297 -0.977238 0.197561
vn 0.951057 -0.000000 -0.309017
vn 0.951057 -0.000000 -0.309017
vn 0.951057 -0.000000 -0.309017
vn 0.951057 -0.000000 -0.309017
vn 0.587785 -0.000000 -0.809017
vn 0.587785 -0.000000 -0.809017
vn 0.587785 -0.000000 -0.809017
vn 0.587785 -0.000000 -0.809017
vn 0.951057 0.000000 0.309017
vn 0.951057 0.000000 0.309017
vn 0.951057 0.000000 0.309017
vn 0.951057 0.000000 0.309017
vn 0.587785 -0.000001 0.809017
vn 0.587785 -0.000001 0.809017
vn 0.587785 -0.000001 0.809017
vn 0.587785 -0.000001 0.809017
vn 0.000000 -0.000000 1.000000
vn 0.000000 -0.000000 1.000000
vn 0.000000 -0.000000 1.000000
vn 0.000000 -0.000000 1.000000
vn -0.587785 -0.000001 0.809017
vn -0.587785 -0.000001 0.809017
vn -0.587785 -0.000001 0.809017
vn -0.587785 -0.000001 0.809017
vn -0.951057 0.000000 0.309017
vn -0.951057 0.000000 0.309017
vn -0.951057 0.000000 0.309017
vn -0.951057 0.000000 0.309017
vn -0.951057 -0.000000 -0.309017
vn -0.951057 -0.000000 -0.309017
vn -0.951057 -0.000000 -0.309017
vn -0.951057 -0.000000 -0.309017
vn -0.587785 -0.000001 -0.809017
vn -0.587785 -0.000001 -0.809017
vn -0.587785 -0.000001 -0.809017
vn -0.587785 -0.000001 -0.809017
vn -0.000000 -0.000001 -1.000000
vn -0.000000 -0.000001 -1.000000
vn -0.000000 -0.000001 -1.000000
vn -0.000000 -0.000001 -1.000000
vn 0.404739 0.725157 -0.557075
vn 0.404739 0.725157 -0.557075
vn 0.404739 0.725157 -0.557075
vn 0.944497 0.312867 -0.100195
vn 0.944497 0.312867 -0.100195
vn 0.944497 0.312867 -0.100195
vn -0.000000 0.725158 -0.688583
vn -0.000000 0.725158 -0.688583
vn -0.000000 0.725158 -0.688583
vn 0.705222 0.312867 -0.636220
vn 0.705222 0.312867 -0.636220
vn 0.705222 0.312867 -0.636220
vn -0.404739 0.725158 -0.557075
vn -0.404739 0.725158 -0.557075
vn -0.404739 0.725158 -0.557075
vn 0.196576 0.312867 -0.929232
vn 0.196576 0.312867 -0.929232
vn 0.196576 0.312867 -0.929232
vn 0.000000 0.725158 0.688583
vn 0.000000 0.725158 0.688583
vn 0.000000 0.725158 0.688583
vn -0.705222 0.312866 0.636220
vn -0.705222 0.312867 0.636220
vn -0.705222 0.312866 0.636220
vn 0.404739 0.725158 0.557075
vn 0.404739 0.725158 0.557075
vn 0.404739 0.725158 0.557075
vn -0.196576 0.312867 0.929232
vn -0.196576 0.312867 0.929232
vn -0.196576 0.312867 0.929232
vn 0.654881 0.725158 0.212784
vn 0.654881 0.725158 0.212784
vn 0.654881 0.725158 0.212784
vn 0.387155 0.312866 0.867309
vn 0.387155 0.312866 0.867309
vn 0.387155 0.312866 0.867309
vn 0.654881 0.725158 -0.212784
vn 0.654881 0.725158 -0.212784
vn 0.654881 0.725158 -0.212784
vn 0.823007 0.312867 0.474103
vn 0.823007 0.312867 0.474103
vn 0.823007 0.312867 0.474103
vn -0.726929 0.295053 -0.620095
vn -0.726929 0.295053 -0.620095
vn -0.726929 0.295053 -0.620095
vn -0.952581 0.295053 -0.074390
vn -0.952581 0.295053 -0.074390
vn -0.952581 0.295053 -0.074390
vn -0.814379 0.295054 0.499729
vn -0.814379 0.295054 0.499729
vn -0.814379 0.295054 0.499729
vn -0.365113 0.295053 0.882970
vn -0.365113 0.295053 0.882970
vn -0.365112 0.295053 0.882970
vn 0.223615 0.295053 0.928946
vn 0.223615 0.295053 0.928946
vn 0.223615 0.295053 0.928946
vn 0.726929 0.295053 0.620095
vn 0.726929 0.295053 0.620095
vn 0.726929 0.295053 0.620095
vn 0.952581 0.295053 0.074390
vn 0.952581 0.295053 0.074390
vn 0.952581 0.295053 0.074390
vn 0.814379 0.295053 -0.499730
vn 0.814379 0.295053 -0.499730
vn 0.814379 0.295053 -0.499730
vn 0.365113 0.295053 -0.882970
vn 0.365113 0.295053 -0.882970
vn 0.365113 0.295053 -0.882970
vn -0.223615 0.295053 -0.928946
vn -0.223615 0.295053 -0.928946
vn -0.223615 0.295053 -0.928946
vn -0.607916 0.628138 -0.485676
vn -0.607916 0.628138 -0.485676
vn -0.607916 0.628138 -0.485676
vn -0.607916 0.628138 -0.485676
vn -0.777287 0.628138 -0.035596
vn -0.777287 0.628138 -0.035596
vn -0.777287 0.628138 -0.035596
vn -0.777287 0.628138 -0.035596
vn -0.649761 0.628138 0.428080
vn -0.649761 0.628138 0.428080
vn -0.649761 0.628138 0.428080
vn -0.649761 0.628138 0.428080
vn 0.535038 -0.844358 0.028177
vn 0.403354 -0.914704 0.024950
vn 0.466572 -0.875870 -0.123137
vn 0.598210 -0.784620 -0.162839
vn 0.579715 -0.784570 0.219956
vn 0.449527 -0.876093 0.174319
vn 0.416203 -0.844514 0.337004
vn 0.311751 -0.914759 0.256958
vn 0.340846 -0.914686 -0.217195
vn 0.449486 -0.844241 -0.291924
vn 0.339404 -0.784568 0.518900
vn 0.261056 -0.876109 0.405318
vn 0.305197 -0.875886 -0.373736
vn 0.388878 -0.784608 -0.482871
vn 0.147760 -0.914741 -0.376053
vn 0.191816 -0.844397 -0.500201
vn 0.138629 -0.844514 0.517279
vn 0.101175 -0.914759 0.391126
vn -0.030418 -0.784568 0.619296
vn -0.027041 -0.876109 0.481354
vn -0.191896 -0.844514 0.499972
vn -0.148045 -0.914759 0.375897
vn -0.388622 -0.784568 0.483141
vn -0.304809 -0.876109 0.373530
vn -0.449123 -0.844514 0.291692
vn -0.340718 -0.914759 0.217088
vn -0.598385 -0.784568 0.162443
vn -0.466151 -0.876109 0.123029
vn -0.534801 -0.844514 -0.028004
vn -0.403248 -0.914759 -0.024641
vn -0.579586 -0.784568 -0.220302
vn -0.449439 -0.876109 -0.174464
vn -0.416203 -0.844514 -0.337004
vn -0.311750 -0.914759 -0.256958
vn -0.339404 -0.784568 -0.518900
vn -0.261056 -0.876109 -0.405318
vn -0.138629 -0.844514 -0.517280
vn -0.101175 -0.914759 -0.391126
vn 0.030845 -0.784558 -0.619288
vn 0.027041 -0.876109 -0.481354
vn -0.286454 -0.957919 -0.018304
vn -0.220987 -0.957919 -0.183181
vn -0.242504 -0.957919 0.153565
vn -0.071111 -0.957919 -0.278089
vn 0.105927 -0.957919 -0.266777
vn 0.242504 -0.957919 -0.153565
vn 0.286454 -0.957919 0.018304
vn 0.220987 -0.957919 0.183181
vn 0.071111 -0.957919 0.278089
vn -0.105927 -0.957919 0.266777
vn 0.568460 -0.801709 -0.184705
vn 0.568460 -0.801709 -0.184705
vn 0.568460 -0.801709 -0.184705
vn 0.087195 -0.996187 0.003029
vn 0.087195 -0.996187 0.003029
vn 0.087195 -0.996187 0.003029
vn 0.351327 -0.801707 -0.483565
vn 0.351327 -0.801707 -0.483565
vn 0.351327 -0.801707 -0.483565
vn 0.070482 -0.996452 -0.045996
vn 0.070482 -0.996452 -0.045996
vn 0.070482 -0.996452 -0.045996
vn 0.568459 -0.801710 0.184704
vn 0.568459 -0.801710 0.184704
vn 0.568459 -0.801710 0.184704
vn 0.071268 -0.995801 0.057448
vn 0.071268 -0.995801 0.057448
vn 0.071268 -0.995801 0.057448
vn 0.351327 -0.801713 0.483556
vn 0.351327 -0.801713 0.483556
vn 0.351327 -0.801713 0.483556
vn 0.023889 -0.995801 0.088368
vn 0.023889 -0.995801 0.088368
vn 0.023889 -0.995801 0.088368
vn 0.000000 -0.801709 0.597714
vn 0.000000 -0.801709 0.597714
vn 0.000000 -0.801709 0.597714
vn -0.032614 -0.995802 0.085532
vn -0.032614 -0.995802 0.085532
vn -0.032614 -0.995802 0.085532
vn -0.351327 -0.801708 0.483564
vn -0.351327 -0.801708 0.483564
vn -0.351327 -0.801708 0.483564
vn -0.076659 -0.995802 0.050027
vn -0.076659 -0.995802 0.050027
vn -0.076659 -0.995802 0.050027
vn -0.568456 -0.801712 0.184702
vn -0.568456 -0.801712 0.184702
vn -0.568456 -0.801712 0.184702
vn -0.091424 -0.995802 -0.004587
vn -0.091424 -0.995802 -0.004587
vn -0.091424 -0.995802 -0.004587
vn -0.568459 -0.801710 -0.184703
vn -0.568459 -0.801710 -0.184703
vn -0.568459 -0.801710 -0.184703
vn -0.071267 -0.995802 -0.057449
vn -0.071267 -0.995801 -0.057449
vn -0.071267 -0.995802 -0.057449
vn -0.351327 -0.801708 -0.483564
vn -0.351327 -0.801708 -0.483564
vn -0.351327 -0.801708 -0.483564
vn -0.023889 -0.995802 -0.088366
vn -0.023889 -0.995802 -0.088366
vn -0.023889 -0.995802 -0.088366
vn -0.000000 -0.801705 -0.597720
vn -0.000000 -0.801705 -0.597720
vn -0.000000 -0.801705 -0.597720
vn 0.032788 -0.996074 -0.082223
vn 0.032788 -0.996074 -0.082223
vn 0.032788 -0.996074 -0.082223
s 1
g pCone1
usemtl initialShadingGroup
f 22/47/1 21/50/2 23/48/3
f 21/50/2 24/52/4 23/48/3
f 24/52/4 25/54/5 23/48/3
f 25/54/5 26/56/6 23/48/3
f 26/56/6 27/58/7 23/48/3
f 27/58/7 28/60/8 23/48/3
f 28/60/8 29/62/9 23/48/3
f 29/62/9 30/64/10 23/48/3
s off
f 2/33/11 1/1/12 11/65/13 12/66/14
f 3/2/15 2/33/16 12/66/17 13/75/18
f 1/1/19 4/3/20 14/68/21 11/65/22
f 4/3/23 5/4/24 15/69/25 14/68/26
f 5/4/27 6/5/28 16/70/29 15/69/30
f 6/5/31 7/6/32 17/71/33 16/70/34
f 7/6/35 8/7/36 18/72/37 17/71/38
f 8/7/39 9/8/40 19/73/41 18/72/42
f 9/8/43 10/9/44 20/74/45 19/73/46
f 10/9/47 3/2/48 13/75/49 20/74/50
f 2/10/51 3/24/52 31/11/53
f 3/24/54 41/31/55 31/11/56
f 3/24/57 10/25/58 32/13/59
f 10/25/60 41/31/61 32/13/62
f 10/25/63 9/26/64 33/14/65
f 9/26/66 41/31/67 33/14/68
f 37/20/69 6/27/70 5/28/71
f 5/28/72 41/31/73 37/20/74
f 5/28/75 4/29/76 38/21/77
f 4/29/78 41/31/79 38/21/80
f 4/29/81 1/30/82 39/22/83
f 1/30/84 41/31/85 39/22/86
f 1/30/87 2/12/88 40/23/89
f 2/12/90 41/31/91 40/23/92
f 41/31/93 3/24/94 32/13/95
f 41/31/96 10/25/97 33/14/98
f 41/31/99 9/26/100 34/15/101
f 41/31/102 8/16/103 35/17/104
f 41/31/105 7/18/106 36/19/107
f 41/31/108 6/27/109 37/20/110
f 41/31/111 5/28/112 38/21/113
f 41/31/114 4/29/115 39/22/116
f 41/31/117 1/30/118 40/23/119
f 41/31/120 2/12/121 31/32/122
f 8/34/123 41/31/124 34/15/125 9/26/126
f 7/35/127 41/31/128 35/17/129 8/16/130
f 6/36/131 41/31/132 36/19/133 7/18/134
s 2
f 42/37/135 43/79/136 47/38/137 46/67/138
f 43/79/136 42/37/135 45/80/139 44/77/140
f 44/77/140 45/80/139 49/39/141 48/49/142
f 46/67/138 47/38/137 51/96/143 50/78/144
f 48/49/142 49/39/141 55/82/145 54/81/146
f 50/78/144 51/96/143 53/40/147 52/76/148
f 52/76/148 53/40/147 80/63/149 81/95/150
f 54/81/146 55/82/145 57/41/151 56/51/152
f 56/51/152 57/41/151 59/84/153 58/83/154
f 58/83/154 59/84/153 61/42/155 60/53/156
f 60/53/156 61/42/155 63/86/157 62/85/158
f 62/85/158 63/86/157 65/43/159 64/55/160
f 64/55/160 65/43/159 67/88/161 66/87/162
f 66/87/162 67/88/161 69/44/163 68/57/164
f 68/57/164 69/44/163 71/90/165 70/89/166
f 70/89/166 71/90/165 73/45/167 72/59/168
f 72/59/168 73/45/167 75/92/169 74/91/170
f 74/91/170 75/92/169 77/46/171 76/61/172
f 76/61/172 77/46/171 79/94/173 78/93/174
f 78/93/174 79/94/173 81/95/150 80/63/149
s 1
f 43/79/175 48/49/176 21/50/2 22/47/1
f 51/96/177 43/79/175 22/47/1 23/48/3
f 48/49/176 56/51/178 24/52/4 21/50/2
f 56/51/178 60/53/179 25/54/5 24/52/4
f 60/53/179 64/55/180 26/56/6 25/54/5
f 64/55/180 68/57/181 27/58/7 26/56/6
f 68/57/181 72/59/182 28/60/8 27/58/7
f 72/59/182 76/61/183 29/62/9 28/60/8
f 76/61/183 80/63/184 30/64/10 29/62/9
f 80/63/184 51/96/177 23/48/3 30/64/10
s off
f 12/66/185 11/65/186 46/67/187
f 46/67/188 11/65/189 45/80/190
f 13/75/191 12/66/192 52/76/193
f 52/76/194 12/66/195 46/67/196
f 11/65/197 14/68/198 45/80/199
f 45/80/200 14/68/201 55/82/202
f 14/68/203 15/69/204 55/82/205
f 55/82/206 15/69/207 59/84/208
f 15/69/209 16/70/210 59/84/211
f 59/84/212 16/70/213 63/86/214
f 16/70/215 17/71/216 63/86/217
f 63/86/218 17/71/219 67/88/220
f 17/71/221 18/72/222 67/88/223
f 67/88/224 18/72/225 71/90/226
f 18/72/227 19/73/228 71/90/229
f 71/90/230 19/73/231 75/92/232
f 19/73/233 20/74/234 75/92/235
f 75/92/236 20/74/237 79/94/238
f 20/74/239 13/75/240 79/94/241
f 79/94/242 13/75/243 52/76/244
s 2
f 46/67/138 45/80/139 42/37/135
f 43/79/136 44/77/140 48/49/142
f 52/76/148 46/67/138 50/78/144
f 51/96/143 47/38/137 43/79/136
f 45/80/139 55/82/145 49/39/141
f 48/49/142 54/81/146 56/51/152
f 55/82/145 59/84/153 57/41/151
f 56/51/152 58/83/154 60/53/156
f 59/84/153 63/86/157 61/42/155
f 60/53/156 62/85/158 64/55/160
f 63/86/157 67/88/161 65/43/159
f 64/55/160 66/87/162 68/57/164
f 67/88/161 71/90/165 69/44/163
f 68/57/164 70/89/166 72/59/168
f 71/90/165 75/92/169 73/45/167
f 72/59/168 74/91/170 76/61/172
f 75/92/169 79/94/173 77/46/171
f 76/61/172 78/93/174 80/63/149
f 79/94/173 52/76/148 81/95/150
f 80/63/149 53/40/147 51/96/143
